#!OML:ASF F:\VICON\USERDATA\INSTALL\rory3\rory3.ASF
:FULLY-SPECIFIED
:DEGREES
4399
root 15.51 17.6894 -7.00954 -1078.35 20.5391 3.0519
lowerback 10.1629 2.93792 1.43258
upperback 0.320185 4.08431 0.130667
thorax -5.26761 1.98021 -1.25789
lowerneck -16.8102 -6.6593 -11.2398
upperneck 28.5991 -8.60704 8.14492
head 13.2938 -3.91563 3.67118
rclavicle -5.51627e-015 1.90833e-014
rhumerus -31.091 0.564368 -86.7352
rradius 40.3601
rwrist 2.11284
rhand -18.2312 9.96845
rfingers 7.12502
rthumb 8.04717 -19.8583
lclavicle -5.51627e-015 1.90833e-014
lhumerus -35.9373 3.16691 79.6704
lradius 31.9244
lwrist -5.30787
lhand -19.073 24.5105
lfingers 7.12502
lthumb 7.23465 54.3668
rfemur 2.9753 3.90385 29.4814
rtibia 23.4551
rfoot -17.7255 8.77502
rtoes 15.2668
lfemur -23.8259 -4.91822 -17.266
ltibia 20.4813
lfoot -7.48435 -3.50799
ltoes -14.9775
4400
root 15.5437 17.6905 -6.9384 -1078.31 19.9422 3.08755
lowerback 10.2163 2.94974 1.37212
upperback 0.291238 4.09323 0.116275
thorax -5.33085 1.98469 -1.24473
lowerneck -16.7605 -6.70559 -11.2182
upperneck 28.6511 -8.68779 8.12617
head 13.3128 -3.95309 3.64747
rclavicle 6.58971e-014 -1.43125e-014
rhumerus -31.4305 0.208742 -86.5219
rradius 40.3007
rwrist 2.37631
rhand -18.0363 9.95701
rfingers 7.12502
rthumb 8.23533 -19.8625
lclavicle 6.58971e-014 -1.43125e-014
lhumerus -35.9028 3.27443 79.4967
lradius 32.1011
lwrist -5.54166
lhand -18.9544 24.6041
lfingers 7.12502
lthumb 7.34919 54.4565
rfemur 3.35956 4.16119 29.3633
rtibia 23.2447
rfoot -17.5627 9.14583
rtoes 16.0785
lfemur -23.9852 -4.58948 -17.6858
ltibia 19.4244
lfoot -7.52222 -4.23988
ltoes -16.1792
4401
root 15.5819 17.6861 -6.86191 -1078.26 19.3042 3.149
lowerback 10.1899 2.94688 1.29262
upperback 0.320769 4.07891 0.110109
thorax -5.29048 1.98027 -1.20215
lowerneck -16.8935 -6.74195 -11.3388
upperneck 28.7177 -8.73732 8.24833
head 13.3893 -3.97025 3.70676
rclavicle -4.76586e-014 0
rhumerus -31.6357 0.0139296 -86.3562
rradius 40.1659
rwrist 2.39429
rhand -17.4785 9.51367
rfingers 7.12502
rthumb 8.77356 -20.284
lclavicle -4.76586e-014 0
lhumerus -35.9832 3.15081 79.3393
lradius 32.5717
lwrist -5.90936
lhand -18.4728 24.9152
lfingers 7.12502
lthumb 7.81402 54.7508
rfemur 3.71001 4.53198 29.1974
rtibia 23.0888
rfoot -17.3121 9.64953
rtoes 17.8012
lfemur -24.1324 -4.58344 -18.0155
ltibia 18.411
lfoot -7.58592 -4.89699
ltoes -14.9755
4402
root 15.6207 17.6817 -6.78351 -1078.19 18.7072 3.06074
lowerback 10.0707 2.86472 1.34794
upperback 0.364716 3.97706 0.173762
thorax -5.18107 1.93133 -1.14384
lowerneck -17.1486 -6.75584 -11.5364
upperneck 28.8285 -8.7191 8.3698
head 13.5069 -3.96371 3.79027
rclavicle 2.29099e-014 1.11319e-014
rhumerus -31.7711 -0.0739551 -86.1747
rradius 40.031
rwrist 2.82418
rhand -16.7276 8.71865
rfingers 7.12502
rthumb 9.49821 -21.0473
lclavicle 2.29099e-014 1.11319e-014
lhumerus -35.9821 3.22722 79.1737
lradius 32.9733
lwrist -5.69765
lhand -18.259 24.8202
lfingers 7.12502
lthumb 8.02033 54.648
rfemur 3.96728 4.75861 29.1623
rtibia 22.9623
rfoot -17.2102 10.1441
rtoes 18.3676
lfemur -24.3505 -4.53093 -18.2061
ltibia 17.4823
lfoot -7.63844 -5.76538
ltoes -14.0459
4403
root 15.6591 17.6789 -6.70813 -1078.2 18.1221 2.92972
lowerback 10.112 2.82505 1.55053
upperback 0.278529 3.94891 0.166393
thorax -5.2812 1.91031 -1.26587
lowerneck -16.9902 -6.74579 -11.4524
upperneck 28.8777 -8.73611 8.31053
head 13.4876 -3.97454 3.75325
rclavicle -2.36057e-014 -4.77083e-015
rhumerus -32.0964 -0.430704 -85.9822
rradius 39.6887
rwrist 3.69542
rhand -17.2406 8.86204
rfingers 7.12502
rthumb 9.00314 -20.9258
lclavicle -2.36057e-014 -4.77083e-015
lhumerus -35.8566 3.37432 78.9312
lradius 32.9946
lwrist -5.38645
lhand -18.0618 24.5341
lfingers 7.12502
lthumb 8.21071 54.3546
rfemur 4.26971 4.75545 29.1414
rtibia 22.8605
rfoot -17.2867 10.5884
rtoes 17.6103
lfemur -24.4856 -4.04679 -18.5217
ltibia 16.6967
lfoot -7.76891 -7.01293
ltoes -15.8596
4404
root 15.6962 17.6781 -6.63234 -1078.23 17.4942 2.80501
lowerback 10.1273 2.86223 1.71409
upperback 0.215573 4.01789 0.158346
thorax -5.34208 1.93863 -1.3782
lowerneck -16.6065 -6.73735 -11.2542
upperneck 28.7183 -8.77652 8.17742
head 13.3241 -3.99816 3.66192
rclavicle -8.94531e-016 -7.15625e-015
rhumerus -32.2977 -0.736208 -85.7486
rradius 38.9561
rwrist 4.75767
rhand -18.5124 9.95602
rfingers 7.12502
rthumb 7.7758 -19.881
lclavicle -8.94531e-016 -7.15625e-015
lhumerus -35.8189 3.11809 78.8785
lradius 33.1473
lwrist -5.11795
lhand -17.9059 24.447
lfingers 7.12502
lthumb 8.36114 54.2615
rfemur 4.60106 4.73034 29.1111
rtibia 22.7981
rfoot -17.3206 11.0141
rtoes 17.0034
lfemur -24.5509 -3.35378 -18.9052
ltibia 16.0763
lfoot -7.80375 -8.47593
ltoes -17.5939
4405
root 15.7292 17.6778 -6.55085 -1078.25 16.8568 2.6278
lowerback 10.036 2.83152 1.75076
upperback 0.210257 3.98608 0.278543
thorax -5.3037 1.92411 -1.26408
lowerneck -16.4616 -6.65628 -11.3985
upperneck 28.6866 -8.65453 8.25373
head 13.277 -3.956 3.74102
rclavicle -5.76476e-015 -2.22639e-014
rhumerus -32.4697 -0.563233 -85.5365
rradius 38.4868
rwrist 5.17975
rhand -19.0793 10.3083
rfingers 7.12502
rthumb 7.22864 -19.5482
lclavicle -5.76476e-015 -2.22639e-014
lhumerus -36.0301 2.63677 79.0119
lradius 33.6702
lwrist -4.42089
lhand -18.0937 24.2683
lfingers 7.12502
lthumb 8.1799 54.09
rfemur 4.88919 4.86353 29.1756
rtibia 22.7593
rfoot -17.2023 11.5171
rtoes 17.4557
lfemur -24.6146 -2.9949 -19.0915
ltibia 15.6439
lfoot -7.59672 -9.72208
ltoes -17.8259
4406
root 15.7601 17.6707 -6.47141 -1078.31 16.3 2.42514
lowerback 10.056 2.78577 1.85003
upperback 0.206886 3.94099 0.348781
thorax -5.31828 1.8999 -1.24135
lowerneck -16.6382 -6.62584 -11.5998
upperneck 28.9442 -8.62908 8.50091
head 13.4451 -3.93218 3.88339
rclavicle 3.37934e-015 7.15625e-015
rhumerus -32.5621 -0.722369 -85.3966
rradius 38.4304
rwrist 4.13447
rhand -18.9795 9.88019
rfingers 7.12502
rthumb 7.32495 -19.973
lclavicle 3.37934e-015 7.15625e-015
lhumerus -36.1531 2.20828 79.0231
lradius 34.1455
lwrist -3.69996
lhand -18.4092 24.2697
lfingers 7.12502
lthumb 7.87543 54.103
rfemur 5.18171 5.0607 29.291
rtibia 22.748
rfoot -16.9947 12.2029
rtoes 18.8079
lfemur -24.6685 -2.76121 -19.2123
ltibia 15.373
lfoot -7.52136 -11.0383
ltoes -20.1335
4407
root 15.7948 17.6626 -6.39191 -1078.35 15.7898 2.31866
lowerback 10.1677 2.77117 1.95229
upperback 0.166052 3.93653 0.346891
thorax -5.41702 1.89295 -1.30747
lowerneck -16.7937 -6.67349 -11.6359
upperneck 29.1413 -8.72031 8.59922
head 13.5818 -3.96045 3.91559
rclavicle -4.81059e-014 1.27222e-014
rhumerus -32.7353 -1.02108 -85.2237
rradius 38.4123
rwrist 2.68029
rhand -18.1079 9.20368
rfingers 7.12502
rthumb 8.16616 -20.6185
lclavicle -4.81059e-014 1.27222e-014
lhumerus -36.2507 1.95687 78.9937
lradius 34.5168
lwrist -3.26372
lhand -18.6498 24.859
lfingers 7.12502
lthumb 7.64315 54.7009
rfemur 5.48181 5.10424 29.2586
rtibia 22.7675
rfoot -16.8845 12.8466
rtoes 19.5508
lfemur -24.6954 -2.62168 -19.4259
ltibia 15.2661
lfoot -7.51375 -12.2379
ltoes -22.7037
4408
root 15.8322 17.6584 -6.30903 -1078.32 15.2785 2.26531
lowerback 10.2138 2.70761 1.99762
upperback 0.0970232 3.86025 0.358222
thorax -5.51577 1.85209 -1.31507
lowerneck -16.7545 -6.64839 -11.5065
upperneck 29.17 -8.69488 8.47755
head 13.5676 -3.95295 3.85004
rclavicle -3.8763e-014 1.11319e-014
rhumerus -32.952 -1.16971 -85.0486
rradius 38.1215
rwrist 2.16075
rhand -17.2965 8.7949
rfingers 7.12502
rthumb 8.94919 -20.9953
lclavicle -3.8763e-014 1.11319e-014
lhumerus -36.3717 2.19273 78.8371
lradius 34.7776
lwrist -3.21472
lhand -18.6333 25.3652
lfingers 7.12502
lthumb 7.65909 55.2065
rfemur 5.72474 5.12981 29.1621
rtibia 22.8354
rfoot -16.8217 13.3058
rtoes 19.7421
lfemur -24.752 -2.83855 -19.5815
ltibia 15.3235
lfoot -6.54846 -13.0568
ltoes -18.996
4409
root 15.8653 17.6531 -6.22356 -1078.37 14.8098 2.07833
lowerback 10.1736 2.62128 2.07815
upperback 0.14376 3.75962 0.474297
thorax -5.45024 1.80336 -1.22105
lowerneck -16.7622 -6.59558 -11.4237
upperneck 29.1136 -8.62645 8.4278
head 13.5284 -3.92162 3.82617
rclavicle 3.16068e-014 2.38542e-015
rhumerus -33.0444 -1.26596 -84.7896
rradius 37.9157
rwrist 1.92821
rhand -17.9035 9.07202
rfingers 7.12502
rthumb 8.36345 -20.7424
lclavicle 3.16068e-014 2.38542e-015
lhumerus -36.368 2.50839 78.7367
lradius 35.0395
lwrist -3.22096
lhand -18.5558 25.9297
lfingers 7.12502
lthumb 7.73391 55.7682
rfemur 6.0654 5.32788 29.3026
rtibia 22.8624
rfoot -16.7668 13.3683
rtoes 19.569
lfemur -24.8422 -3.17639 -19.5312
ltibia 15.6396
lfoot -5.79175 -13.8357
ltoes -15.2781
4410
root 15.8954 17.6473 -6.13537 -1078.48 14.3528 1.85595
lowerback 10.1289 2.54234 2.16056
upperback 0.249647 3.66859 0.610898
thorax -5.32083 1.76105 -1.10626
lowerneck -16.8215 -6.5768 -11.4425
upperneck 29.0579 -8.61604 8.51645
head 13.5219 -3.90779 3.86422
rclavicle 2.96189e-014 8.74653e-015
rhumerus -33.1441 -1.38937 -84.5151
rradius 37.8521
rwrist 2.22237
rhand -18.4158 9.10545
rfingers 7.12502
rthumb 7.86904 -20.7281
lclavicle 2.96189e-014 8.74653e-015
lhumerus -36.248 2.71594 78.7014
lradius 35.148
lwrist -3.21253
lhand -18.5273 25.7347
lfingers 7.12502
lthumb 7.76139 55.5722
rfemur 6.51888 5.46011 29.4838
rtibia 22.8113
rfoot -16.7577 13.4515
rtoes 18.8949
lfemur -24.932 -3.56794 -19.4107
ltibia 16.1995
lfoot -5.93979 -14.8238
ltoes -15.2409
4411
root 15.9265 17.6418 -6.04334 -1078.65 13.8223 1.62379
lowerback 10.1913 2.5058 2.30252
upperback 0.280736 3.64076 0.667956
thorax -5.31906 1.7446 -1.12446
lowerneck -16.7534 -6.56134 -11.2731
upperneck 29.1049 -8.63995 8.4515
head 13.5165 -3.91053 3.80716
rclavicle 8.57259e-014 1.59028e-015
rhumerus -33.4383 -1.7002 -84.2998
rradius 37.6966
rwrist 2.86506
rhand -18.0416 8.80193
rfingers 7.12502
rthumb 8.23017 -21.0178
lclavicle 8.57259e-014 1.59028e-015
lhumerus -36.1989 2.7762 78.5856
lradius 35.1966
lwrist -3.31001
lhand -18.2044 24.8597
lfingers 7.12502
lthumb 8.07303 54.6855
rfemur 7.01209 5.47993 29.6248
rtibia 22.7392
rfoot -16.3649 13.8699
rtoes 19.7973
lfemur -24.9304 -4.16859 -19.1808
ltibia 16.8754
lfoot -6.18161 -15.7782
ltoes -15.2368
4412
root 15.9568 17.6297 -5.9477 -1078.78 13.183 1.44658
lowerback 10.2148 2.5381 2.34599
upperback 0.282368 3.69176 0.711524
thorax -5.32911 1.76891 -1.11176
lowerneck -16.6579 -6.58416 -11.1328
upperneck 29.1592 -8.7042 8.35627
head 13.5137 -3.93858 3.73613
rclavicle 8.4235e-014 0
rhumerus -33.7954 -2.00528 -84.1052
rradius 37.4532
rwrist 2.83184
rhand -17.9009 9.19036
rfingers 7.12502
rthumb 8.36599 -20.624
lclavicle 8.4235e-014 0
lhumerus -36.246 2.6684 78.5662
lradius 35.4168
lwrist -3.00097
lhand -18.1471 25.1351
lfingers 7.12502
lthumb 8.12832 54.9588
rfemur 7.44505 5.56091 29.6981
rtibia 22.6976
rfoot -15.4687 14.4316
rtoes 22.4067
lfemur -24.9307 -4.97883 -18.873
ltibia 17.5753
lfoot -6.10999 -16.5742
ltoes -14.672
